<mxfile host="app.diagrams.net" modified="2023-10-25T08:26:08.171Z" agent="Mozilla/5.0 (X11; Linux x86_64) AppleWebKit/537.36 (KHTML, like Gecko) Chrome/116.0.0.0 Safari/537.36" version="22.0.7" etag="fC0e4iBOenwuoAuMVjmt" type="github">
  <diagram name="Page-1" id="fR5FnZ9Cn1VhN8h3Tvik">
    <mxGraphModel>
      <root>
        <mxCell id="0" />
        <mxCell id="1" parent="0" />
      </root>
    </mxGraphModel>
  </diagram>
</mxfile>
